# xmcd
#
# Track frame offsets: 
#        150
#        23896
#        44808
#        69303
#        87372
#        110116
#        132111
#        152164
#        174610
#        190772
#        217678
#        240228
#        261684
#        284308
#
# Disc length: 4109 seconds
#
# Revision: 1
# Processed by: cddbd v1.5.2PL0 Copyright (c) Steve Scherf et al.
# Submitted via: ExactAudioCopyFreeDBPlugin 1.0
#
DISCID=c9100b0e
DTITLE=群星 - 蓝光CD 柔情女人心
DYEAR=2009
DGENRE=Acid
TTITLE0=老情歌
TTITLE1=爱不在就放手
TTITLE2=哭砂
TTITLE3=相思
TTITLE4=玫瑰爱人
TTITLE5=月满西楼
TTITLE6=爱上你是一个错
TTITLE7=有多少爱可以从来
TTITLE8=人约黄昏后
TTITLE9=动了情伤了心
TTITLE10=一个爱上浪漫的人
TTITLE11=背叛情歌
TTITLE12=做你的爱人
TTITLE13=念念不忘的情人
EXTD=
EXTT0=
EXTT1=
EXTT2=
EXTT3=
EXTT4=
EXTT5=
EXTT6=
EXTT7=
EXTT8=
EXTT9=
EXTT10=
EXTT11=
EXTT12=
EXTT13=
PLAYORDER=
